PathFileType	4	(X/Y/Z)	E:\Marcel_BSc\Ayumi_22_01_2025\22-01-2025\conv_dl_2.trc
DataRate	CameraRate	NumFrames	NumMarkers	Units	OrigDataRate	OrigDataStartFrame	OrigNumFrames
200.0	200.0	6	48	mm	200.0	290	2314	
Frame#	Time	FHD			LBHD			RBHD			RBAR			LBAR			RSACR			LSACR			LASI			USACR			LTHI2			C7			CLAV			T10			RSHO			LSHO			LTHI1			LTHI3			LTIB1			LTIB2			LTIB3			LMMAL			LLMAL			LHEE			LMT1			LMT5			LMT3			RTHI1			RTHI2			RTHI3			RTIB1			RTIB3			RTIB2			RLMAL			RMMAL			RHEE			RMT5			RMT1			RMT3			LDUPA			LMUPA			LUUPA			LRAD			RUL			RRAD			RUFIN			RMUPA			RDUPA			RUUPA			
		X1	Y1	Z1	X2	Y2	Z2	X3	Y3	Z3	X4	Y4	Z4	X5	Y5	Z5	X6	Y6	Z6	X7	Y7	Z7	X8	Y8	Z8	X9	Y9	Z9	X10	Y10	Z10	X11	Y11	Z11	X12	Y12	Z12	X13	Y13	Z13	X14	Y14	Z14	X15	Y15	Z15	X16	Y16	Z16	X17	Y17	Z17	X18	Y18	Z18	X19	Y19	Z19	X20	Y20	Z20	X21	Y21	Z21	X22	Y22	Z22	X23	Y23	Z23	X24	Y24	Z24	X25	Y25	Z25	X26	Y26	Z26	X27	Y27	Z27	X28	Y28	Z28	X29	Y29	Z29	X30	Y30	Z30	X31	Y31	Z31	X32	Y32	Z32	X33	Y33	Z33	X34	Y34	Z34	X35	Y35	Z35	X36	Y36	Z36	X37	Y37	Z37	X38	Y38	Z38	X39	Y39	Z39	X40	Y40	Z40	X41	Y41	Z41	X42	Y42	Z42	X43	Y43	Z43	X44	Y44	Z44	X45	Y45	Z45	X46	Y46	Z46	X47	Y47	Z47	X48	Y48	Z48	
290	1.44	104.00014	1610.1794	-609.2829	117.87404	1592.1562	-548.96863	148.33842	1582.2046	-679.27631	218.22679	239.47762	-1724.9254	193.76869	251.2928	497.71185	335.21414	963.07135	-649.36853	331.32831	965.05798	-577.11646				325.72229	973.9024	-613.58588	230.35336	551.82568	-435.61621	303.43201	1401.9453	-597.9494	166.80086	1339.3618	-612.06909	322.00385	1123.265	-606.27588	246.94046	1416.1342	-739.63153	230.12482	1406.9529	-465.28076	258.62463	612.0921	-429.61963	280.78104	550.91418	-441.85873	269.6358	239.80855	-427.34229	319.73334	236.8262	-430.82288	289.03989	178.93816	-435.80978	282.93561	73.772545	-521.05542	303.17242	73.038376	-448.95972	341.47583	36.687557	-490.52774	144.45755	43.917019	-473.49814	173.79947	29.874945	-397.78333	146.97911	40.883991	-438.14029	270.64603	612.52667	-787.13379	242.90324	553.5426	-781.16559	294.72595	552.29474	-778.63153	278.80951	280.51581	-794.36591	299.55035	218.04214	-788.51605	329.60785	276.77557	-792.29749	307.87222	74.812653	-769.76093	274.56375	78.77179	-699.6333	348.87073	32.032463	-726.75739	177.11331	33.074665	-813.22064	149.19002	41.115612	-753.9248	155.76062	38.648228	-784.27899	307.57477	1334.3228	-277.80377	281.11755	1376.3052	-281.45175	291.24515	1377.7007	-342.99854	239.75986	1376.043	50.691032	331.021	1387.58	-1238.9979	274.81848	1414.6082	-1241.2141	279.63425	1425.0642	-1311.4436	321.03293	1374.2028	-843.85425	326.6554	1367.2874	-905.25281	335.02991	1326.8763	-837.71899
291	1.445	103.97055	1610.1586	-609.25616	117.84554	1592.1929	-548.92871	148.31697	1582.1877	-679.25262	218.20981	239.68916	-1724.7794	193.76295	251.2939	497.69629	335.18073	963.04047	-649.36926	331.31543	965.05957	-577.11633				325.71432	973.89069	-613.59393	230.3349	551.8255	-435.60712	303.40891	1401.9329	-597.93665	166.77145	1339.3623	-612.05927	321.97607	1123.2699	-606.27637	246.93013	1416.1361	-739.61639	230.13234	1406.9882	-465.22302	258.60968	612.10126	-429.6243	280.76208	550.9046	-441.85934	269.30496	239.87605	-427.694	320.04434	236.39514	-430.98358	288.99435	178.96538	-435.82617	282.93298	73.784065	-521.06	303.16028	73.05378	-448.95078	341.47092	36.691353	-490.53925	144.46379	43.926388	-473.49454	173.80487	29.855558	-397.78683	146.9789	40.885921	-438.13885	270.60321	612.55139	-787.14844	242.89661	553.51709	-781.15002	294.68741	552.2973	-778.62921	278.80194	280.5249	-794.38171	299.53711	218.04578	-788.51526	329.60593	276.76904	-792.28973	307.87582	74.807564	-769.7674	274.5668	78.76992	-699.63171	348.86838	32.03072	-726.75757	177.12469	33.084396	-813.21698	149.19096	41.11277	-753.92755	155.7178	38.926998	-784.3634	307.55444	1334.3046	-277.7934	281.11871	1376.277	-281.44171	291.19144	1377.9375	-342.82272	239.722	1376.0333	50.709141	330.96579	1387.5992	-1239.0028	274.98438	1414.3538	-1241.3218	279.58624	1425.0618	-1311.4264	321.10794	1374.0492	-843.76697	326.61725	1367.2837	-905.23401	334.99716	1326.8658	-837.70331
292	1.45	103.94533	1610.1713	-609.17981	117.80403	1592.1613	-548.91205	148.2868	1582.187	-679.2132	218.16533	239.66991	-1724.8243	193.77853	251.28859	497.69965	335.12518	963.06061	-649.37646	331.29938	965.03925	-577.11871				325.69351	973.88342	-613.57935	230.31476	551.81482	-435.62558	303.39951	1401.9243	-597.92059	166.74513	1339.3748	-612.01562	321.98465	1123.2317	-606.25183	246.88541	1416.1399	-739.60028	230.08157	1406.9218	-465.23886	258.59332	612.11395	-429.61102	280.73068	550.91925	-441.86267	269.34106	239.90291	-427.6814	320.0195	236.40105	-430.98911	289.00955	178.96587	-435.83371	282.9382	73.781075	-521.06506	303.16177	73.0299	-448.97861	341.47443	36.679504	-490.53857	144.4635	43.911484	-473.49103	173.79024	29.879747	-397.79248	146.98509	40.865566	-438.13651	270.5787	612.5578	-787.1463	242.87706	553.51526	-781.14185	294.73935	552.29596	-778.70996	278.83722	280.53482	-794.35107	299.52997	218.05478	-788.52539	329.59821	276.77335	-792.29681	307.86993	74.807655	-769.7641	274.56601	78.785271	-699.63721	348.87677	32.022671	-726.76117	177.13696	33.076969	-813.22119	149.20091	41.120594	-753.91968	155.72736	38.912125	-784.37195	307.53528	1334.2944	-277.77371	281.10483	1376.2795	-281.40991	291.26566	1377.6881	-342.94043	239.68076	1376.006	50.718388	330.91519	1387.6069	-1238.9849	274.91309	1414.3865	-1241.2932	279.53485	1425.0576	-1311.4108	320.9758	1374.2	-843.81702	326.5842	1367.2902	-905.22394	334.95197	1326.8716	-837.68274
293	1.455	103.91784	1610.1548	-609.14093	117.79125	1592.1394	-548.86493	148.27068	1582.166	-679.18182	218.17441	239.66402	-1724.7992	193.76456	251.29974	497.70013	335.11246	963.05579	-649.38666	331.284	965.02405	-577.11975				325.38171	974.07422	-613.72906	230.27251	551.80798	-435.62543	303.39215	1401.9257	-597.90381	166.72763	1339.3662	-611.9964	321.97037	1123.2393	-606.2359	246.86185	1416.1305	-739.5741	230.13777	1406.9731	-465.16119	258.56689	612.09802	-429.61032	280.7023	550.91486	-441.84537	269.29288	239.8573	-427.73001	320.03711	236.38725	-430.9874	289.03699	178.94746	-435.81348	282.93933	73.776306	-521.07788	303.14059	73.034531	-448.97	341.48502	36.688232	-490.53564	144.47253	43.917259	-473.4906	173.82677	29.820202	-397.79944	146.99965	40.868202	-438.13562	270.5809	612.54041	-787.13855	242.8656	553.49072	-781.16339	294.67319	552.31335	-778.64563	278.81406	280.50662	-794.3576	299.53207	218.07211	-788.51349	329.58737	276.76785	-792.29034	307.87939	74.805092	-769.76068	274.55679	78.761894	-699.62946	348.87006	32.031719	-726.7644	177.11978	33.083141	-813.2312	149.19673	41.121525	-753.91089	155.70465	38.866093	-784.36694	307.52194	1334.2733	-277.75739	281.08527	1376.2435	-281.40213	291.23395	1377.7026	-342.90396	239.67358	1375.9515	50.744717	330.87317	1387.6042	-1238.9877	274.85275	1414.4052	-1241.2704	279.45782	1425.0592	-1311.4103	320.94534	1374.1998	-843.80347	326.53885	1367.2968	-905.19983	334.91547	1326.8777	-837.66351
294	1.46	103.87881	1610.1202	-609.14508	117.77908	1592.1111	-548.82611	148.2424	1582.1796	-679.14502	218.20013	239.66948	-1724.795	193.76741	251.29724	497.70401	335.07309	963.0683	-649.38666	331.25247	965.02716	-577.11505				325.52872	973.95923	-613.61603	230.24873	551.79944	-435.63541	303.36954	1401.9196	-597.88318	166.69354	1339.363	-611.98169	321.96667	1123.234	-606.22961	246.83211	1416.1383	-739.55524	230.08598	1407.01	-465.13321	258.54446	612.08612	-429.60223	280.63086	550.90375	-441.86719	269.61136	239.82872	-427.36664	319.72589	236.83395	-430.84039	289.09912	178.92894	-435.79599	282.944	73.779106	-521.07452	303.15936	73.06073	-448.95135	341.48575	36.685825	-490.52621	144.46382	43.923168	-473.5011	173.81506	29.8622	-397.78064	146.97408	40.881886	-438.13736	270.56436	612.54376	-787.14423	242.80588	553.55988	-781.16638	294.72812	552.30127	-778.71521	278.79297	280.48547	-794.3623	299.52319	218.03975	-788.52258	329.59149	276.76746	-792.28912	307.86346	74.80275	-769.75354	274.55466	78.763298	-699.62524	348.8714	32.0471	-726.7663	177.12527	33.089943	-813.22449	149.19577	41.124088	-753.91528	155.76924	38.677383	-784.29944	307.50336	1334.2657	-277.73221	281.05386	1376.2369	-281.36621	291.25937	1377.6823	-342.88055	239.63417	1375.8851	50.784763	330.81464	1387.6383	-1238.9789	274.80038	1414.3989	-1241.2632	279.36041	1425.0699	-1311.3904	320.90939	1374.2141	-843.78619	326.46414	1367.3175	-905.19098	334.88022	1326.8698	-837.66364
295	1.465	103.86642	1610.1202	-609.07178	117.77216	1592.1019	-548.76141	148.21512	1582.1528	-679.12396	218.24918	239.48439	-1724.9104	193.7737	251.29053	497.71054	334.92374	963.14136	-649.42999	331.24368	965.01862	-577.10413				325.50879	973.93188	-613.62555	230.23643	551.79785	-435.63309	303.35019	1401.9396	-597.87592	166.66431	1339.3616	-611.9632	321.93982	1123.2347	-606.22235	246.78917	1416.1477	-739.53308	230.08583	1406.9382	-465.12674	258.51688	612.06818	-429.60452	280.5863	550.90381	-441.86322	269.60056	239.77885	-427.35425	319.73599	236.84288	-430.83777	289.04901	178.94685	-435.80981	282.94437	73.77874	-521.06726	303.15469	73.041145	-448.97305	341.48099	36.689056	-490.53021	144.46754	43.915298	-473.50449	173.80554	29.848686	-397.79489	146.99275	40.874142	-438.14325	270.57043	612.55005	-787.15967	242.81886	553.55756	-781.16315	294.61679	552.31323	-778.63477	278.79099	280.48526	-794.32739	299.51025	218.04977	-788.508	329.57962	276.77847	-792.27789	307.87234	74.807648	-769.75665	274.55099	78.776917	-699.6264	348.86887	32.037895	-726.7627	177.12721	33.073364	-813.23126	149.1976	41.128769	-753.91693	155.69922	38.826466	-784.35284	307.48297	1334.2463	-277.7157	281.02597	1376.2249	-281.35056	291.47568	1377.8057	-342.56079	239.59871	1375.8435	50.808426	330.74722	1387.6565	-1238.9672	274.5513	1414.6331	-1241.1633	279.298	1425.0531	-1311.376	320.87445	1374.2184	-843.77222	326.41116	1367.3357	-905.17535	334.84906	1326.8883	-837.64819
